<?xml version="1.0" encoding="iso-8859-1"?>
<!-- Generator: Adobe Illustrator 16.0.0, SVG Export Plug-In . SVG Version: 6.00 Build 0)  -->
<!DOCTYPE svg PUBLIC "-//W3C//DTD SVG 1.1//EN" "http://www.w3.org/Graphics/SVG/1.1/DTD/svg11.dtd">
<svg version="1.1" id="Layer_1" xmlns="http://www.w3.org/2000/svg" xmlns:xlink="http://www.w3.org/1999/xlink" x="0px" y="0px"
	 width="283.464px" height="283.465px" viewBox="0 0 283.464 283.465" style="enable-background:new 0 0 283.464 283.465;"
	 xml:space="preserve">
<g>
	<g>
		<path style="fill:#000080;" d="M167.777,136.412c0-10.523-8.563-19.086-19.083-19.086c-10.525,0-19.086,8.563-19.086,19.086
			s8.561,19.086,19.086,19.086C159.214,155.498,167.777,146.936,167.777,136.412z M148.694,142.789c-3.518,0-6.38-2.857-6.38-6.377
			c0-3.516,2.862-6.377,6.38-6.377s6.377,2.861,6.377,6.377C155.071,139.932,152.211,142.789,148.694,142.789z"/>
		<path style="fill:#000080;" d="M253.813,158.988c-1.702-0.533-3.514-0.818-5.388-0.818c-9.981,0-18.101,8.115-18.101,18.098
			c0,9.979,8.119,18.094,18.101,18.094c9.977,0,18.096-8.115,18.096-18.094c0-1.678-0.248-3.295-0.676-4.84
			C264.202,165.52,259.647,160.813,253.813,158.988z M248.425,181.654c-2.975,0-5.395-2.414-5.395-5.387
			c0-2.977,2.42-5.391,5.395-5.391c2.97,0,5.388,2.414,5.388,5.391C253.813,179.24,251.395,181.654,248.425,181.654z"/>
		<path style="fill:#000080;" d="M243.031,155.162v-0.344v-1.01v-36.482h-12.706v7.125h-10.213v-7.125h-12.708v17.402
			c0,11.27,9.163,20.434,20.432,20.434h13.904H243.031z M230.325,142.453h-2.489c-3.41,0-6.306-2.225-7.327-5.293h9.816V142.453z"/>
		<path style="fill:#000080;" d="M189.894,121.012c0-2.035-1.647-3.686-3.683-3.686h-9.025v42.742h12.708V137.16h8.952v-12.709
			h-8.952V121.012z"/>
		<path style="fill:#000080;" d="M167.078,171.271v-7.504v-0.025c-0.005-2.031-1.648-3.674-3.679-3.674h-9.029v11.203
			c0,11.266,9.169,20.434,20.434,20.434h15.379v-12.709h-15.379C170.545,178.996,167.078,175.535,167.078,171.271z"/>
		<path style="fill:#000080;" d="M266.521,124.451v-3.439c0-2.035-1.646-3.686-3.684-3.686h-9.024v37.492
			c5.217,1.309,9.695,4.459,12.708,8.738V137.16h8.951v-12.709H266.521z"/>
	</g>
	<g>
		<path style="fill:#000080;" d="M85.049,108.156L58.248,89.918l-0.417-0.281c-0.568-0.34-1.232-0.533-1.942-0.533
			c-0.721,0-1.392,0.199-1.969,0.543l-0.753,0.59l-11.57,9.01l14.836,10.094l2.371,1.617l5.529,3.76l23.496,15.994
			c4.034-1.441,10.064-3.963,18.162-8.299L85.049,108.156z"/>
		<path style="fill:#0074E4;" d="M41.596,99.246L9.742,124.059l-0.499,0.389c-0.766,0.701-1.25,1.707-1.25,2.822v19.797
			l36.03-28.059l12.409-9.668L41.596,99.246z"/>
		<path style="fill:#000080;" d="M87.111,153.932v20.766h17.081V148.43C97.544,151.836,90.071,153.334,87.111,153.932z"/>
		<path style="fill:#000080;" d="M7.993,147.066v40.883c0,2.113,1.715,3.83,3.832,3.83h13.25v-17.082v-17.711v-7.777v-2.273v-6.906
			v-6.268l2.981-2.32l4.509-3.51l11.458-8.924L7.993,147.066z"/>
		<path style="fill:#0074E4;" d="M87.111,174.697h-9.107H56.187H25.075v17.082h31.112h44.171c2.115,0,3.834-1.717,3.834-3.83
			v-13.252H87.111z"/>
		<linearGradient id="SVGID_1_" gradientUnits="userSpaceOnUse" x1="29.4351" y1="134.7813" x2="112.4565" y2="134.7813">
			<stop  offset="0" style="stop-color:#000080"/>
			<stop  offset="1" style="stop-color:#0074E4"/>
		</linearGradient>
		<path style="fill:url(#SVGID_1_);" d="M106.625,122.846c0,0-0.633-0.43-0.635-0.434l-7.096-4.832
			c4.845,4.186,0.721,7.822-3.81,10.197c-2.888,1.285-5.308,2.236-7.257,2.934l0.035,0.025c-0.915,0.332-1.949,0.664-3.074,0.986
			c-2.081,0.637-3.111,0.813-3.111,0.813c-1.076,0.25-2.244,0.482-3.453,0.709l0.03,0.002c0,0-0.131,0.021-0.381,0.063
			c-3.859,0.699-8.373,1.232-13.489,1.459h-34.95v0.533v5.436v4.367v1.277v1.859v3.742h25.773h3.761
			c15.037,0,32.212-1.102,45.636-8.656c2.793-1.574,6.023-4.42,7.207-7.512c0.045-0.113,0.09-0.232,0.127-0.346
			c0.018-0.059,0.041-0.107,0.058-0.162C114.075,128.891,108.546,124.234,106.625,122.846z"/>
	</g>
</g>
</svg>
