<?xml version="1.0" encoding="UTF-8" standalone="no"?>
<!-- Created with Inkscape (http://www.inkscape.org/) -->

<svg
   version="1.1"
   id="svg2"
   width="793.70667"
   height="1483.92"
   viewBox="0 0 793.70667 1483.92"
   sodipodi:docname="로고 변경.svg"
   inkscape:version="1.2.1 (9c6d41e410, 2022-07-14)"
   xmlns:inkscape="http://www.inkscape.org/namespaces/inkscape"
   xmlns:sodipodi="http://sodipodi.sourceforge.net/DTD/sodipodi-0.dtd"
   xmlns="http://www.w3.org/2000/svg"
   xmlns:svg="http://www.w3.org/2000/svg">
  <defs
     id="defs6">
    <clipPath
       clipPathUnits="userSpaceOnUse"
       id="clipPath18">
      <path
         d="M 0,1112.944 H 595.28 V 0 H 0 Z"
         id="path16" />
    </clipPath>
    <clipPath
       clipPathUnits="userSpaceOnUse"
       id="clipPath70">
      <path
         d="m 345.483,708.425 c -3.627,-1.614 -6.665,-2.81 -9.113,-3.685 v 0 l 0.042,-0.028 c -1.151,-0.417 -2.447,-0.836 -3.858,-1.244 v 0 c -2.616,-0.795 -3.911,-1.017 -3.911,-1.013 v 0 c -1.351,-0.316 -2.816,-0.612 -4.334,-0.892 v 0 l 0.037,-0.003 c 0,0 -0.165,-0.03 -0.476,-0.081 v 0 c -4.85,-0.875 -10.519,-1.544 -16.944,-1.832 v 0 H 263.03 v -0.665 -6.828 -5.49 -1.6 -2.339 -4.694 h 32.371 4.722 c 18.886,0 40.456,1.379 57.316,10.864 v 0 c 3.51,1.979 7.564,5.557 9.05,9.44 v 0 c 0.056,0.144 0.113,0.291 0.161,0.432 v 0 c 0.023,0.069 0.051,0.138 0.069,0.207 v 0 c 2.614,8.052 -4.33,13.907 -6.743,15.649 v 0 c 0,0 -0.794,0.54 -0.796,0.54 v 0 l -8.912,6.066 c 6.084,-5.248 0.902,-9.818 -4.785,-12.804"
         id="path68" />
    </clipPath>
    <linearGradient
       x1="0"
       y1="0"
       x2="1"
       y2="0"
       gradientUnits="userSpaceOnUse"
       gradientTransform="matrix(104.26807,0,0,-104.26807,263.03076,699.63037)"
       spreadMethod="pad"
       id="linearGradient80">
      <stop
         style="stop-opacity:1;stop-color:#000080"
         offset="0"
         id="stop76" />
      <stop
         style="stop-opacity:1;stop-color:#0074e4"
         offset="1"
         id="stop78" />
    </linearGradient>
    <clipPath
       clipPathUnits="userSpaceOnUse"
       id="clipPath90">
      <path
         d="M 0,1112.944 H 595.28 V 0 H 0 Z"
         id="path88" />
    </clipPath>
    <clipPath
       clipPathUnits="userSpaceOnUse"
       id="clipPath142">
      <path
         d="m 250.994,370.605 c -2.888,-1.286 -5.308,-2.237 -7.258,-2.934 v 0 l 0.036,-0.025 c -0.916,-0.333 -1.949,-0.665 -3.074,-0.987 v 0 c -2.082,-0.636 -3.111,-0.813 -3.111,-0.813 v 0 c -1.077,-0.249 -2.245,-0.482 -3.454,-0.708 v 0 l 0.03,-0.003 c 0,0 -0.131,-0.021 -0.381,-0.062 v 0 c -3.859,-0.699 -8.372,-1.232 -13.489,-1.459 v 0 h -34.951 v -0.533 -5.435 -4.368 -1.277 -1.86 -3.742 h 25.775 3.761 c 15.036,0 32.212,1.102 45.635,8.656 v 0 c 2.793,1.574 6.023,4.42 7.207,7.513 v 0 c 0.044,0.113 0.089,0.232 0.127,0.345 v 0 c 0.017,0.059 0.042,0.107 0.057,0.162 v 0 c 2.078,6.416 -3.45,11.072 -5.37,12.461 v 0 c 0,0 -0.633,0.43 -0.635,0.434 v 0 l -7.096,4.832 c 4.844,-4.186 0.72,-7.822 -3.809,-10.197"
         id="path140" />
    </clipPath>
    <linearGradient
       x1="0"
       y1="0"
       x2="1"
       y2="0"
       gradientUnits="userSpaceOnUse"
       gradientTransform="matrix(83.021484,0,0,-83.021484,185.34277,363.60059)"
       spreadMethod="pad"
       id="linearGradient152">
      <stop
         style="stop-opacity:1;stop-color:#000080"
         offset="0"
         id="stop148" />
      <stop
         style="stop-opacity:1;stop-color:#0074e4"
         offset="1"
         id="stop150" />
    </linearGradient>
    <clipPath
       clipPathUnits="userSpaceOnUse"
       id="clipPath162">
      <path
         d="M 0,1112.944 H 595.28 V 0 H 0 Z"
         id="path160" />
    </clipPath>
    <clipPath
       clipPathUnits="userSpaceOnUse"
       id="clipPath190">
      <path
         d="m 341.423,950.766 c -3.627,-1.612 -6.664,-2.809 -9.113,-3.683 v 0 l 0.043,-0.028 c -1.153,-0.417 -2.448,-0.836 -3.86,-1.246 v 0 c -2.615,-0.794 -3.91,-1.015 -3.91,-1.012 v 0 c -1.352,-0.316 -2.817,-0.612 -4.334,-0.891 v 0 l 0.037,-0.005 c 0,0 -0.166,-0.028 -0.476,-0.08 v 0 c -4.85,-0.875 -10.518,-1.544 -16.944,-1.831 v 0 H 258.97 v -0.666 -6.828 -5.49 -1.601 -2.338 -4.693 h 32.37 4.723 c 18.888,0 40.455,1.379 57.315,10.864 v 0 c 3.512,1.977 7.564,5.556 9.051,9.438 v 0 c 0.056,0.146 0.113,0.293 0.162,0.433 v 0 c 0.024,0.071 0.049,0.138 0.068,0.208 v 0 c 2.613,8.051 -4.33,13.907 -6.744,15.648 v 0 c 0,0 -0.793,0.54 -0.795,0.54 v 0 l -8.912,6.066 c 6.084,-5.249 0.902,-9.818 -4.785,-12.805"
         id="path188" />
    </clipPath>
    <linearGradient
       x1="0"
       y1="0"
       x2="1"
       y2="0"
       gradientUnits="userSpaceOnUse"
       gradientTransform="matrix(104.26758,0,0,-104.26758,258.9707,941.97266)"
       spreadMethod="pad"
       id="linearGradient200">
      <stop
         style="stop-opacity:1;stop-color:#000080"
         offset="0"
         id="stop196" />
      <stop
         style="stop-opacity:1;stop-color:#0074e4"
         offset="1"
         id="stop198" />
    </linearGradient>
    <clipPath
       clipPathUnits="userSpaceOnUse"
       id="clipPath210">
      <path
         d="M 0,1112.944 H 595.28 V 0 H 0 Z"
         id="path208" />
    </clipPath>
  </defs>
  <sodipodi:namedview
     id="namedview4"
     pagecolor="#ffffff"
     bordercolor="#000000"
     borderopacity="0.25"
     inkscape:showpageshadow="2"
     inkscape:pageopacity="0.0"
     inkscape:pagecheckerboard="0"
     inkscape:deskcolor="#d1d1d1"
     showgrid="false"
     inkscape:zoom="0.59100217"
     inkscape:cx="366.32691"
     inkscape:cy="580.37012"
     inkscape:window-width="1920"
     inkscape:window-height="1057"
     inkscape:window-x="-8"
     inkscape:window-y="-8"
     inkscape:window-maximized="1"
     inkscape:current-layer="g10">
    <inkscape:page
       x="0"
       y="0"
       id="page8"
       width="793.70667"
       height="1483.92" />
  </sodipodi:namedview>
  <g
     id="g10"
     inkscape:groupmode="layer"
     inkscape:label="Page 1"
     transform="matrix(1.3333333,0,0,-1.3333333,0,1483.92)">
    <g
       id="g1697">
      <g
         id="g156"
         inkscape:label="g156">
        <g
           id="g158"
           clip-path="url(#clipPath162)"
           style="fill:#bdbdbd;fill-opacity:1">
          <g
             id="g164"
             transform="translate(328.8174,975.4121)"
             style="fill:#bdbdbd;fill-opacity:1">
            <path
               d="m 0,0 -33.661,22.907 -0.522,0.356 c -0.715,0.423 -1.549,0.669 -2.441,0.669 -0.905,0 -1.748,-0.256 -2.47,-0.685 l -0.948,-0.742 -14.532,-11.317 18.635,-12.676 2.978,-2.03 6.943,-4.724 29.51,-20.087 c 5.065,1.811 12.639,4.975 22.811,10.422 z"
               style="fill:#bdbdbd;fill-opacity:1;fill-rule:nonzero;stroke:none"
               id="path166" />
          </g>
          <g
             id="g168"
             transform="translate(274.2437,986.6006)"
             style="fill:#bdbdbd;fill-opacity:1">
            <path
               d="m 0,0 -40.006,-31.159 -0.627,-0.49 c -0.961,-0.878 -1.569,-2.139 -1.569,-3.544 v -24.863 l 45.249,35.241 15.588,12.138 z"
               style="fill:#bdbdbd;fill-opacity:1;fill-rule:nonzero;stroke:none"
               id="path170" />
          </g>
          <g
             id="g172"
             transform="translate(331.4092,917.9238)"
             style="fill:#bdbdbd;fill-opacity:1">
            <path
               d="M 0,0 V -26.085 H 21.449 V 6.908 C 13.102,2.629 3.717,0.745 0,0"
               style="fill:#bdbdbd;fill-opacity:1;fill-rule:nonzero;stroke:none"
               id="path174" />
          </g>
          <g
             id="g176"
             transform="translate(232.042,926.5449)"
             style="fill:#bdbdbd;fill-opacity:1">
            <path
               d="m 0,0 v -51.345 c 0,-2.658 2.155,-4.812 4.814,-4.812 h 16.639 v 21.451 22.247 9.767 2.855 8.676 7.865 l 3.745,2.918 5.662,4.408 14.389,11.21 z"
               style="fill:#bdbdbd;fill-opacity:1;fill-rule:nonzero;stroke:none"
               id="path178" />
          </g>
          <g
             id="g180"
             transform="translate(331.4092,891.8389)"
             style="fill:#bdbdbd;fill-opacity:1">
            <path
               d="m 0,0 h -11.441 -27.397 -39.076 v -21.451 h 39.076 55.473 c 2.658,0 4.814,2.154 4.814,4.812 l 0,16.639 z"
               style="fill:#bdbdbd;fill-opacity:1;fill-rule:nonzero;stroke:none"
               id="path182" />
          </g>
        </g>
      </g>
      <g
         id="g184">
        <g
           id="g186"
           clip-path="url(#clipPath190)"
           style="fill:#bdbdbd;fill-opacity:1">
          <g
             id="g192"
             style="fill:#bdbdbd;fill-opacity:1">
            <g
               id="g194"
               style="fill:#bdbdbd;fill-opacity:1">
              <path
                 d="m 341.423,950.766 c -3.627,-1.612 -6.664,-2.809 -9.113,-3.683 v 0 l 0.043,-0.028 c -1.153,-0.417 -2.448,-0.836 -3.86,-1.246 v 0 c -2.615,-0.794 -3.91,-1.015 -3.91,-1.012 v 0 c -1.352,-0.316 -2.817,-0.612 -4.334,-0.891 v 0 l 0.037,-0.005 c 0,0 -0.166,-0.028 -0.476,-0.08 v 0 c -4.85,-0.875 -10.518,-1.544 -16.944,-1.831 v 0 H 258.97 v -0.666 -6.828 -5.49 -1.601 -2.338 -4.693 h 32.37 4.723 c 18.888,0 40.455,1.379 57.315,10.864 v 0 c 3.512,1.977 7.564,5.556 9.051,9.438 v 0 c 0.056,0.146 0.113,0.293 0.162,0.433 v 0 c 0.024,0.071 0.049,0.138 0.068,0.208 v 0 c 2.613,8.051 -4.33,13.907 -6.744,15.648 v 0 c 0,0 -0.793,0.54 -0.795,0.54 v 0 l -8.912,6.066 c 6.084,-5.249 0.902,-9.818 -4.785,-12.805"
                 style="fill:#bdbdbd;stroke:none;fill-opacity:1"
                 id="path202" />
            </g>
          </g>
        </g>
      </g>
    </g>
    <g
       id="g1733"
       style="fill-rule:evenodd">
      <g
         id="g1721"
         style="fill-rule:evenodd">
        <g
           id="g1719"
           clip-path="url(#clipPath162)"
           style="fill:#bdbdbd;fill-opacity:1;fill-rule:evenodd">
          <g
             id="g1701"
             transform="translate(328.8174,975.4121)"
             style="fill:#bdbdbd;fill-opacity:1;fill-rule:evenodd">
            <path
               d="m 0,0 -33.661,22.907 -0.522,0.356 c -0.715,0.423 -1.549,0.669 -2.441,0.669 -0.905,0 -1.748,-0.256 -2.47,-0.685 l -0.948,-0.742 -14.532,-11.317 18.635,-12.676 2.978,-2.03 6.943,-4.724 29.51,-20.087 c 5.065,1.811 12.639,4.975 22.811,10.422 z"
               style="fill:#bdbdbd;fill-opacity:1;fill-rule:evenodd;stroke:none"
               id="path1699" />
          </g>
          <g
             id="g1705"
             transform="translate(274.2437,986.6006)"
             style="fill:#bdbdbd;fill-opacity:1;fill-rule:evenodd">
            <path
               d="m 0,0 -40.006,-31.159 -0.627,-0.49 c -0.961,-0.878 -1.569,-2.139 -1.569,-3.544 v -24.863 l 45.249,35.241 15.588,12.138 z"
               style="fill:#bdbdbd;fill-opacity:1;fill-rule:evenodd;stroke:none"
               id="path1703" />
          </g>
          <g
             id="g1709"
             transform="translate(331.4092,917.9238)"
             style="fill:#bdbdbd;fill-opacity:1;fill-rule:evenodd">
            <path
               d="M 0,0 V -26.085 H 21.449 V 6.908 C 13.102,2.629 3.717,0.745 0,0"
               style="fill:#bdbdbd;fill-opacity:1;fill-rule:evenodd;stroke:none"
               id="path1707" />
          </g>
          <g
             id="g1713"
             transform="translate(232.042,926.5449)"
             style="fill:#bdbdbd;fill-opacity:1;fill-rule:evenodd">
            <path
               d="m 0,0 v -51.345 c 0,-2.658 2.155,-4.812 4.814,-4.812 h 16.639 v 21.451 22.247 9.767 2.855 8.676 7.865 l 3.745,2.918 5.662,4.408 14.389,11.21 z"
               style="fill:#bdbdbd;fill-opacity:1;fill-rule:evenodd;stroke:none"
               id="path1711" />
          </g>
          <g
             id="g1717"
             transform="translate(331.4092,891.8389)"
             style="fill:#bdbdbd;fill-opacity:1;fill-rule:evenodd">
            <path
               d="m 0,0 h -11.441 -27.397 -39.076 v -21.451 h 39.076 55.473 c 2.658,0 4.814,2.154 4.814,4.812 l 0,16.639 z"
               style="fill:#bdbdbd;fill-opacity:1;fill-rule:evenodd;stroke:none"
               id="path1715" />
          </g>
        </g>
      </g>
      <g
         id="g1731"
         style="fill-rule:evenodd">
        <g
           id="g1729"
           clip-path="url(#clipPath190)"
           style="fill:#bdbdbd;fill-opacity:1;fill-rule:evenodd">
          <g
             id="g1727"
             style="fill:#bdbdbd;fill-opacity:1;fill-rule:evenodd">
            <g
               id="g1725"
               style="fill:#bdbdbd;fill-opacity:1;fill-rule:evenodd">
              <path
                 d="m 341.423,950.766 c -3.627,-1.612 -6.664,-2.809 -9.113,-3.683 v 0 l 0.043,-0.028 c -1.153,-0.417 -2.448,-0.836 -3.86,-1.246 v 0 c -2.615,-0.794 -3.91,-1.015 -3.91,-1.012 v 0 c -1.352,-0.316 -2.817,-0.612 -4.334,-0.891 v 0 l 0.037,-0.005 c 0,0 -0.166,-0.028 -0.476,-0.08 v 0 c -4.85,-0.875 -10.518,-1.544 -16.944,-1.831 v 0 H 258.97 v -0.666 -6.828 -5.49 -1.601 -2.338 -4.693 h 32.37 4.723 c 18.888,0 40.455,1.379 57.315,10.864 v 0 c 3.512,1.977 7.564,5.556 9.051,9.438 v 0 c 0.056,0.146 0.113,0.293 0.162,0.433 v 0 c 0.024,0.071 0.049,0.138 0.068,0.208 v 0 c 2.613,8.051 -4.33,13.907 -6.744,15.648 v 0 c 0,0 -0.793,0.54 -0.795,0.54 v 0 l -8.912,6.066 c 6.084,-5.249 0.902,-9.818 -4.785,-12.805"
                 style="fill:#bdbdbd;stroke:none;fill-opacity:1;fill-rule:evenodd"
                 id="path1723" />
            </g>
          </g>
        </g>
      </g>
    </g>
  </g>
</svg>
