<?xml version="1.0" encoding="iso-8859-1"?>
<!-- Generator: Adobe Illustrator 16.0.0, SVG Export Plug-In . SVG Version: 6.00 Build 0)  -->
<!DOCTYPE svg PUBLIC "-//W3C//DTD SVG 1.1//EN" "http://www.w3.org/Graphics/SVG/1.1/DTD/svg11.dtd">
<svg version="1.1" id="Layer_1" xmlns="http://www.w3.org/2000/svg" xmlns:xlink="http://www.w3.org/1999/xlink" x="0px" y="0px"
	 width="283.464px" height="283.465px" viewBox="0 0 283.464 283.465" style="enable-background:new 0 0 283.464 283.465;"
	 xml:space="preserve">
<g>
	<g>
		<path style="fill:#000080;" d="M106.969,200.953c0-10.524-8.561-19.087-19.083-19.087c-10.524,0-19.087,8.563-19.087,19.087
			c0,10.523,8.563,19.086,19.087,19.086C98.408,220.039,106.969,211.477,106.969,200.953z M87.885,207.331
			c-3.518,0-6.379-2.861-6.379-6.378c0-3.518,2.861-6.379,6.379-6.379c3.516,0,6.377,2.861,6.377,6.379
			C94.263,204.47,91.401,207.331,87.885,207.331z"/>
		<path style="fill:#000080;" d="M193.006,223.528c-1.703-0.535-3.516-0.823-5.391-0.823c-9.98,0-18.1,8.121-18.1,18.103
			c0,9.975,8.119,18.094,18.1,18.094c9.979,0,18.098-8.119,18.098-18.094c0-1.682-0.246-3.301-0.678-4.84
			C203.393,230.059,198.838,225.351,193.006,223.528z M187.616,246.194c-2.973,0-5.391-2.418-5.391-5.387
			c0-2.977,2.418-5.395,5.391-5.395c2.971,0,5.391,2.418,5.391,5.395C193.006,243.776,190.586,246.194,187.616,246.194z"/>
		<path style="fill:#000080;" d="M182.225,219.699v-0.346v-1.009v-36.479h-12.709v7.125h-10.215v-7.125h-12.705v17.4
			c0,11.266,9.164,20.433,20.43,20.433h13.908H182.225z M169.516,206.991h-2.49c-3.408,0-6.305-2.222-7.326-5.292h9.816V206.991z"/>
		<path style="fill:#000080;" d="M129.085,185.551c0-2.034-1.647-3.685-3.682-3.685h-9.026v42.743h12.708v-22.91h8.953v-12.708
			h-8.953V185.551z"/>
		<path style="fill:#000080;" d="M106.271,235.812v-7.511v-0.02c-0.007-2.029-1.65-3.672-3.681-3.672h-9.027v11.202
			c0,11.262,9.167,20.43,20.432,20.43h15.378v-12.709h-15.378C109.735,243.532,106.271,240.067,106.271,235.812z"/>
		<path style="fill:#000080;" d="M205.713,188.991v-3.44c0-2.034-1.646-3.685-3.682-3.685h-9.025v37.487
			c5.211,1.313,9.695,4.462,12.707,8.736v-26.391h8.953v-12.708H205.713z"/>
	</g>
	<g>
		<path style="fill:#000080;" d="M176.969,48.495l-33.66-22.906l-0.523-0.356c-0.715-0.422-1.549-0.669-2.441-0.669
			c-0.905,0-1.748,0.256-2.47,0.686l-0.948,0.742l-14.532,11.316l18.635,12.676l2.978,2.029l6.943,4.726l29.51,20.087
			c5.064-1.812,12.639-4.976,22.811-10.423L176.969,48.495z"/>
		<path style="fill:#0074E4;" d="M122.396,37.308L82.39,68.466l-0.627,0.49c-0.96,0.878-1.568,2.139-1.568,3.545v24.861
			l45.249-35.239l15.587-12.14L122.396,37.308z"/>
		<path style="fill:#000080;" d="M179.561,105.984v26.085h21.449V99.075C192.663,103.355,183.278,105.238,179.561,105.984z"/>
		<path style="fill:#000080;" d="M80.194,97.362v51.346c0,2.657,2.155,4.813,4.814,4.813h16.639v-21.451v-22.247v-9.767v-2.856
			v-8.675v-7.865l3.745-2.919l5.662-4.408l14.389-11.209L80.194,97.362z"/>
		<path style="fill:#0074E4;" d="M179.561,132.069H168.12h-27.397h-39.076v21.451h39.076h55.473c2.658,0,4.814-2.155,4.814-4.813
			v-16.639H179.561z"/>
		<linearGradient id="SVGID_1_" gradientUnits="userSpaceOnUse" x1="107.1226" y1="81.9351" x2="211.3901" y2="81.9351">
			<stop  offset="0" style="stop-color:#000080"/>
			<stop  offset="1" style="stop-color:#0074E4"/>
		</linearGradient>
		<path style="fill:url(#SVGID_1_);" d="M204.067,66.942c0,0-0.793-0.54-0.795-0.54l-8.912-6.066
			c6.084,5.249,0.902,9.818-4.785,12.805c-3.627,1.613-6.664,2.81-9.113,3.685l0.043,0.028c-1.152,0.417-2.447,0.835-3.859,1.244
			c-2.615,0.795-3.91,1.017-3.91,1.013c-1.352,0.316-2.816,0.611-4.334,0.893l0.037,0.003c0,0-0.166,0.029-0.477,0.081
			c-4.85,0.874-10.518,1.543-16.943,1.831h-43.896v0.665v6.828v5.49v1.601v2.339v4.693h32.37h4.723
			c18.887,0,40.455-1.379,57.314-10.864c3.512-1.979,7.564-5.557,9.051-9.439c0.057-0.145,0.113-0.291,0.162-0.433
			c0.023-0.069,0.049-0.138,0.068-0.207C213.424,74.539,206.481,68.685,204.067,66.942z"/>
	</g>
</g>
</svg>
