<?xml version="1.0" encoding="iso-8859-1"?>
<!-- Generator: Adobe Illustrator 16.0.0, SVG Export Plug-In . SVG Version: 6.00 Build 0)  -->
<!DOCTYPE svg PUBLIC "-//W3C//DTD SVG 1.1//EN" "http://www.w3.org/Graphics/SVG/1.1/DTD/svg11.dtd">
<svg version="1.1" id="Layer_1" xmlns="http://www.w3.org/2000/svg" xmlns:xlink="http://www.w3.org/1999/xlink" x="0px" y="0px"
	 width="283.464px" height="283.465px" viewBox="0 0 283.464 283.465" style="enable-background:new 0 0 283.464 283.465;"
	 xml:space="preserve">
<g>
	<path style="fill:#000080;" d="M172.91,101.186l-33.661-22.907l-0.522-0.355c-0.715-0.423-1.549-0.669-2.441-0.669
		c-0.905,0-1.748,0.256-2.47,0.685l-0.948,0.742l-14.532,11.316l18.635,12.677l2.978,2.029l6.944,4.725l29.51,20.086
		c5.064-1.811,12.639-4.975,22.811-10.422L172.91,101.186z"/>
	<path style="fill:#0074E4;" d="M118.336,89.998l-40.006,31.16l-0.627,0.49c-0.96,0.877-1.568,2.139-1.568,3.543v24.863
		l45.249-35.241l15.587-12.139L118.336,89.998z"/>
	<path style="fill:#000080;" d="M175.501,158.675v26.084h21.449v-32.992C188.603,156.046,179.218,157.929,175.501,158.675z"/>
	<path style="fill:#000080;" d="M76.134,150.054v51.344c0,2.658,2.155,4.813,4.814,4.813h16.639v-21.451v-22.246v-9.768v-2.855
		v-8.676v-7.865l3.745-2.918l5.662-4.408l14.389-11.209L76.134,150.054z"/>
	<path style="fill:#0074E4;" d="M175.501,184.759H164.06h-27.397H97.587v21.451h39.076h55.473c2.658,0,4.814-2.154,4.814-4.813
		v-16.639H175.501z"/>
	<linearGradient id="SVGID_1_" gradientUnits="userSpaceOnUse" x1="103.063" y1="134.625" x2="207.3306" y2="134.625">
		<stop  offset="0" style="stop-color:#000080"/>
		<stop  offset="1" style="stop-color:#0074E4"/>
	</linearGradient>
	<path style="fill:url(#SVGID_1_);" d="M200.007,119.634c0,0-0.793-0.541-0.795-0.541l-8.912-6.066
		c6.084,5.249,0.902,9.818-4.785,12.804c-3.627,1.613-6.664,2.811-9.113,3.684l0.043,0.029c-1.152,0.416-2.447,0.836-3.859,1.244
		c-2.615,0.795-3.91,1.016-3.91,1.014c-1.352,0.316-2.816,0.611-4.334,0.891l0.037,0.004c0,0-0.166,0.029-0.477,0.08
		c-4.85,0.875-10.518,1.545-16.943,1.832h-43.896v0.666v6.828v5.49v1.6v2.34v4.691h32.37h4.723c18.887,0,40.456-1.379,57.315-10.863
		c3.512-1.979,7.564-5.557,9.051-9.439c0.057-0.145,0.113-0.291,0.162-0.432c0.023-0.07,0.049-0.139,0.068-0.209
		C209.365,127.229,202.421,121.374,200.007,119.634z"/>
</g>
</svg>
