<?xml version="1.0" encoding="iso-8859-1"?>
<!-- Generator: Adobe Illustrator 16.0.0, SVG Export Plug-In . SVG Version: 6.00 Build 0)  -->
<!DOCTYPE svg PUBLIC "-//W3C//DTD SVG 1.1//EN" "http://www.w3.org/Graphics/SVG/1.1/DTD/svg11.dtd">
<svg version="1.1" id="Layer_1" xmlns="http://www.w3.org/2000/svg" xmlns:xlink="http://www.w3.org/1999/xlink" x="0px" y="0px"
	 width="283.464px" height="283.465px" viewBox="0 0 283.464 283.465" style="enable-background:new 0 0 283.464 283.465;"
	 xml:space="preserve">
<g>
	<path style="fill:#000080;" d="M91.241,113.509c0-15.285-12.437-27.721-27.717-27.721c-15.288,0-27.721,12.437-27.721,27.721
		c0,15.285,12.434,27.722,27.721,27.722C78.804,141.23,91.241,128.794,91.241,113.509z M63.523,122.771
		c-5.109,0-9.266-4.15-9.266-9.263c0-5.106,4.157-9.262,9.266-9.262c5.109,0,9.262,4.156,9.262,9.262
		C72.786,118.621,68.633,122.771,63.523,122.771z"/>
	<path style="fill:#000080;" d="M216.204,146.3c-2.472-0.774-5.104-1.188-7.825-1.188c-14.497,0-26.29,11.787-26.29,26.286
		c0,14.493,11.793,26.279,26.29,26.279c14.49,0,26.283-11.786,26.283-26.279c0-2.438-0.36-4.786-0.981-7.03
		C231.292,155.786,224.677,148.949,216.204,146.3z M208.378,179.221c-4.32,0-7.835-3.506-7.835-7.823c0-4.324,3.515-7.83,7.835-7.83
		c4.313,0,7.825,3.506,7.825,7.83C216.204,175.715,212.692,179.221,208.378,179.221z"/>
	<path style="fill:#000080;" d="M200.543,140.742v-0.499v-1.467V85.788h-18.455v10.349h-14.834V85.788h-18.458v25.276
		c0,16.368,13.31,29.679,29.677,29.679h20.195H200.543z M182.088,122.283h-3.615c-4.953,0-9.159-3.231-10.643-7.688h14.258V122.283z
		"/>
	<path style="fill:#000080;" d="M123.365,91.141c0-2.956-2.393-5.353-5.349-5.353h-13.109v62.081h18.458v-33.272h13.002V96.136
		h-13.002V91.141z"/>
	<path style="fill:#000080;" d="M90.225,164.141v-10.899v-0.037c-0.007-2.95-2.394-5.336-5.343-5.336H71.768v16.272
		c0,16.362,13.317,29.679,29.679,29.679h22.337V175.36h-22.337C95.262,175.36,90.225,170.333,90.225,164.141z"/>
	<path style="fill:#000080;" d="M234.662,96.136v-4.996c0-2.956-2.392-5.353-5.351-5.353h-13.107v54.456
		c7.577,1.9,14.082,6.477,18.458,12.691v-38.339h13.001V96.136H234.662z"/>
</g>
</svg>
